REM DIRINDEX 1\2,1\4,1\3\5,1\3\6,1\3\7
REM DIRNAME folder01,folder02,folder03,folder04,folder05,folder06,folder07
TITLE ""
FILE "CD1Track38.mp3" MP3
  TRACK 01 AUDIO
    TITLE "0:"
    INDEX 01 00:00:00
  TRACK 02 AUDIO
    TITLE "5:cjc081_0653"
    INDEX 01 00:00:19
  TRACK 03 AUDIO
    TITLE "0:"
    INDEX 01 00:01:52
  TRACK 04 AUDIO
    TITLE "6:cjc081_0654"
    INDEX 01 00:02:24
  TRACK 05 AUDIO
    TITLE "0:"
    INDEX 01 00:05:16
  TRACK 06 AUDIO
    TITLE "5:cjc081_0655"
    INDEX 01 00:05:57
  TRACK 07 AUDIO
    TITLE "0:"
    INDEX 01 00:07:09
  TRACK 08 AUDIO
    TITLE "6:cjc081_0656"
    INDEX 01 00:07:56
  TRACK 09 AUDIO
    TITLE "0:"
    INDEX 01 00:09:49
  TRACK 10 AUDIO
    TITLE "5:cjc081_0657"
    INDEX 01 00:10:14
  TRACK 11 AUDIO
    TITLE "0:"
    INDEX 01 00:11:37
  TRACK 12 AUDIO
    TITLE "6:cjc081_0658"
    INDEX 01 00:12:05
  TRACK 13 AUDIO
    TITLE "0:"
    INDEX 01 00:13:10
  TRACK 14 AUDIO
    TITLE "5:cjc081_0659"
    INDEX 01 00:13:53
  TRACK 15 AUDIO
    TITLE "0:"
    INDEX 01 00:15:13
  TRACK 16 AUDIO
    TITLE "6:cjc081_0660"
    INDEX 01 00:15:56
  TRACK 17 AUDIO
    TITLE "0:"
    INDEX 01 00:17:00
  TRACK 18 AUDIO
    TITLE "5:cjc081_0661"
    INDEX 01 00:17:45
  TRACK 19 AUDIO
    TITLE "0:"
    INDEX 01 00:18:52
  TRACK 20 AUDIO
    TITLE "6:cjc081_0662"
    INDEX 01 00:19:20
  TRACK 21 AUDIO
    TITLE "0:"
    INDEX 01 00:21:11
  TRACK 22 AUDIO
    TITLE "5:cjc081_0663"
    INDEX 01 00:21:49
  TRACK 23 AUDIO
    TITLE "0:"
    INDEX 01 00:23:01
  TRACK 24 AUDIO
    TITLE "6:cjc081_0664"
    INDEX 01 00:23:44
  TRACK 25 AUDIO
    TITLE "0:"
    INDEX 01 00:26:66
  TRACK 26 AUDIO
    TITLE "5:cjc081_0665"
    INDEX 01 00:27:36
  TRACK 27 AUDIO
    TITLE "0:"
    INDEX 01 00:28:51
  TRACK 28 AUDIO
    TITLE "6:cjc081_0666"
    INDEX 01 00:29:15
  TRACK 29 AUDIO
    TITLE "0:"
    INDEX 01 00:30:52
  TRACK 30 AUDIO
    TITLE "5:cjc081_0667"
    INDEX 01 00:31:22
  TRACK 31 AUDIO
    TITLE "0:"
    INDEX 01 00:32:45
  TRACK 32 AUDIO
    TITLE "6:cjc081_0668"
    INDEX 01 00:33:15
  TRACK 33 AUDIO
    TITLE "0:"
    INDEX 01 00:34:26
  TRACK 34 AUDIO
    TITLE "5:cjc081_0669"
    INDEX 01 00:34:69
  TRACK 35 AUDIO
    TITLE "0:"
    INDEX 01 00:36:03
  TRACK 36 AUDIO
    TITLE "6:cjc081_0670"
    INDEX 01 00:36:50
  TRACK 37 AUDIO
    TITLE "0:"
    INDEX 01 00:37:73
  TRACK 38 AUDIO
    TITLE "5:cjc081_0671"
    INDEX 01 00:38:43
  TRACK 39 AUDIO
    TITLE "0:"
    INDEX 01 00:39:60
  TRACK 40 AUDIO
    TITLE "6:cjc081_0672"
    INDEX 01 00:40:32
  TRACK 41 AUDIO
    TITLE "0:"
    INDEX 01 00:41:73
  TRACK 42 AUDIO
    TITLE "5:cjc081_0673"
    INDEX 01 00:42:41
  TRACK 43 AUDIO
    TITLE "0:"
    INDEX 01 00:43:66
  TRACK 44 AUDIO
    TITLE "6:cjc081_0674"
    INDEX 01 00:44:32
  TRACK 45 AUDIO
    TITLE "0:"
    INDEX 01 00:46:74
  TRACK 46 AUDIO
    TITLE "5:cjc081_0675"
    INDEX 01 00:47:40
  TRACK 47 AUDIO
    TITLE "0:"
    INDEX 01 00:48:53
  TRACK 48 AUDIO
    TITLE "6:cjc081_0676"
    INDEX 01 00:49:23
  TRACK 49 AUDIO
    TITLE "0:"
    INDEX 01 00:51:69
  TRACK 50 AUDIO
    TITLE "5:cjc081_0677"
    INDEX 01 00:52:45
  TRACK 51 AUDIO
    TITLE "0:"
    INDEX 01 00:54:05
  TRACK 52 AUDIO
    TITLE "6:cjc081_0678"
    INDEX 01 00:54:56
  TRACK 53 AUDIO
    TITLE "0:"
    INDEX 01 00:56:71
  TRACK 54 AUDIO
    TITLE "5:cjc081_0679"
    INDEX 01 00:57:37
  TRACK 55 AUDIO
    TITLE "0:"
    INDEX 01 00:58:66
  TRACK 56 AUDIO
    TITLE "6:cjc081_0680"
    INDEX 01 00:59:38
  TRACK 57 AUDIO
    TITLE "0:"
    INDEX 01 01:00:70
  TRACK 58 AUDIO
    TITLE "5:cjc081_0681"
    INDEX 01 01:01:38
  TRACK 59 AUDIO
    TITLE "0:"
    INDEX 01 01:02:57
  TRACK 60 AUDIO
    TITLE "6:cjc081_0682"
    INDEX 01 01:03:33
  TRACK 61 AUDIO
    TITLE "0:"
    INDEX 01 01:05:48
  TRACK 62 AUDIO
    TITLE "7:cjc081_0683"
    INDEX 01 01:07:08
  TRACK 63 AUDIO
    TITLE "0:"
    INDEX 01 01:17:47
